<?xml version="1.0" encoding="UTF-8"?>
<svg version="1.1" xmlns="http://www.w3.org/2000/svg" width="251" height="251">
<path d="M0 0 C82.83 0 165.66 0 251 0 C251 82.83 251 165.66 251 251 C168.17 251 85.34 251 0 251 C0 168.17 0 85.34 0 0 Z " fill="#DEE3EE" transform="translate(0,0)"/>
<path d="M0 0 C82.83 0 165.66 0 251 0 C251 82.83 251 165.66 251 251 C168.17 251 85.34 251 0 251 C0 168.17 0 85.34 0 0 Z M118.5 14.609375 C117.17838867 15.1202063 117.17838867 15.1202063 115.83007812 15.64135742 C114.89615234 16.00720947 113.96222656 16.37306152 113 16.75 C111.07298814 17.4910713 109.14590567 18.23195901 107.21875 18.97265625 C104.44064754 20.04765687 101.66942668 21.13314759 98.90625 22.24609375 C90.35049225 25.59339508 81.33692081 27.41877001 72.39526367 29.43676758 C70.3360514 29.92097945 68.29442359 30.47891446 66.2578125 31.05078125 C60.1502022 32.59638689 53.81692 32.95970276 47.5625 33.5625 C45.02174779 33.80985231 42.48135546 34.06094006 39.94140625 34.31640625 C38.82451416 34.42412354 37.70762207 34.53184082 36.55688477 34.64282227 C34.07082202 34.72835157 34.07082202 34.72835157 33 36 C32.89822376 37.34479614 32.86482784 38.69485592 32.85955811 40.04348755 C32.85384796 40.91508514 32.84813782 41.78668274 32.84225464 42.68469238 C32.84113678 43.64870972 32.84001892 44.61272705 32.83886719 45.60595703 C32.83390228 46.61588715 32.82893738 47.62581726 32.82382202 48.66635132 C32.8091413 52.03017854 32.80238427 55.39395841 32.796875 58.7578125 C32.79112297 61.09699505 32.78536524 63.43617759 32.77960205 65.77536011 C32.76907161 70.69675924 32.76324412 75.61814196 32.75976562 80.53955078 C32.75431396 86.81239367 32.73036646 93.08501583 32.70179367 99.35778999 C32.68305185 104.2000285 32.67795531 109.04221545 32.67642975 113.88448715 C32.67342244 116.19428574 32.66545972 118.50408385 32.65224457 120.81384659 C32.55381392 139.36067543 34.16632236 155.00633124 42 172 C42.2794043 172.61343262 42.55880859 173.22686523 42.84667969 173.85888672 C57.20967991 204.7028211 86.05853396 225.41074434 115.26220703 241.06591797 C116.92553051 241.95997186 118.57074188 242.8874787 120.21484375 243.81640625 C122.79078123 245.14979722 122.79078123 245.14979722 124.91796875 244.90625 C160.4671207 229.43269793 195.36226249 203.11106406 210.11763 166.13819885 C216.66177066 149.01290671 217.71442272 131.5735926 217.48828125 113.44140625 C217.47892147 111.18742164 217.47182041 108.93342665 217.46684265 106.6794281 C217.44802156 100.8317813 217.39914442 94.98478508 217.34332275 89.13739014 C217.2915839 83.13660475 217.26921358 77.13571117 217.24414062 71.13476562 C217.19099421 59.42289587 217.10599493 47.71150264 217 36 C213.15478192 34.71826064 209.32378353 34.49536335 205.3125 34.125 C196.41884465 33.23529841 187.73995085 31.86873296 179 30 C178.23026855 29.84192871 177.46053711 29.68385742 176.66748047 29.52099609 C160.28912738 26.12011569 144.25152554 21.05171771 128.9609375 14.2265625 C124.7837694 12.49617888 122.55830468 13.02657029 118.5 14.609375 Z " fill="#E2E6F0" transform="translate(0,0)"/>
<path d="M0 0 C24.28066689 9.98437507 49.77515376 16.51918071 76.03515625 18.1015625 C78.25 18.3125 78.25 18.3125 81.25 19.3125 C81.36676793 32.21432358 81.45515311 45.1160178 81.50906086 58.01826572 C81.53495714 64.01179977 81.56998251 70.00496763 81.62719727 75.99829102 C81.68223895 81.80148256 81.71156984 87.60432592 81.72438622 93.40775871 C81.73349847 95.60213629 81.75128428 97.79649871 81.77865028 99.99072456 C82.20981588 136.05514538 71.28444997 164.51684201 46.25 190.6875 C31.11985119 205.5002331 12.99829575 216.70802908 -5.75 226.3125 C-6.79800781 226.94865234 -6.79800781 226.94865234 -7.8671875 227.59765625 C-10.58902976 228.63105279 -11.97212533 228.19076939 -14.75 227.3125 C-17.37354652 226.10538188 -19.89677541 224.86145814 -22.4375 223.5 C-23.17500488 223.10619141 -23.91250977 222.71238281 -24.67236328 222.30664062 C-37.55587152 215.27680311 -49.70572921 206.9806476 -60.75 197.3125 C-61.59820312 196.58546875 -62.44640625 195.8584375 -63.3203125 195.109375 C-84.12160341 176.91619702 -100.92980585 151.00110464 -102.9342556 122.71208 C-103.00041476 119.96039289 -103.00913891 117.21507869 -102.99291992 114.46264648 C-102.99481827 113.42891403 -102.99671661 112.39518158 -102.99867249 111.3301239 C-103.00234728 107.94786756 -102.99172853 104.56583065 -102.98046875 101.18359375 C-102.97927563 98.82373581 -102.97882407 96.46387739 -102.9790802 94.10401917 C-102.97752138 89.1776326 -102.96927334 84.25131932 -102.95581055 79.32495117 C-102.93873741 72.99613466 -102.93499891 66.66739791 -102.93575573 60.33856106 C-102.93548465 55.47546115 -102.9300148 50.61237883 -102.92275429 45.74928474 C-102.91956413 43.41397294 -102.91759941 41.07865913 -102.91686058 38.74334526 C-102.91470544 35.494796 -102.90598171 32.24633351 -102.89526367 28.99780273 C-102.89571686 28.02593018 -102.89617004 27.05405762 -102.89663696 26.05273438 C-102.89237198 25.17391098 -102.88810699 24.29508759 -102.88371277 23.38963318 C-102.88203692 22.62186271 -102.88036108 21.85409224 -102.87863445 21.06305599 C-102.75 19.3125 -102.75 19.3125 -101.75 18.3125 C-99.77563656 18.03669615 -97.79292083 17.82028224 -95.80859375 17.62890625 C-94.58462891 17.50580078 -93.36066406 17.38269531 -92.09960938 17.25585938 C-89.51899991 17.0046268 -86.93827271 16.75460023 -84.35742188 16.50585938 C-77.95422889 15.85984984 -71.94383086 15.04572617 -65.75 13.3125 C-64.21804621 12.9680001 -62.68402112 12.6326289 -61.1484375 12.3046875 C-47.04038308 9.20156172 -33.33113823 4.98127885 -20.09521484 -0.85888672 C-12.10939428 -4.33208487 -7.99165215 -3.38313274 0 0 Z M-21.6875 8.25 C-22.37134766 8.54068359 -23.05519531 8.83136719 -23.75976562 9.13085938 C-25.42961245 9.84317166 -27.09077726 10.57577948 -28.75 11.3125 C-28.8658215 23.87327649 -28.95467903 36.43392606 -29.00906086 48.99512768 C-29.03516077 54.82775412 -29.07056691 60.66001538 -29.12719727 66.49243164 C-29.18150164 72.12047734 -29.21141756 77.74817166 -29.22438622 83.37645912 C-29.23362882 85.52431076 -29.25167751 87.67214304 -29.27865028 89.8198452 C-29.31491891 92.8271791 -29.31994616 95.83305896 -29.31762695 98.84057617 C-29.33560333 99.72962143 -29.35357971 100.61866669 -29.37210083 101.53465271 C-29.33469739 106.01352919 -29.2915053 107.6911994 -26.24577332 111.18574524 C-25.42216812 111.88757431 -24.59856293 112.58940338 -23.75 113.3125 C-23.18615874 117.25938882 -23.37665221 119.51246903 -25.0625 123.125 C-27.67939314 126.51726889 -29.36398736 127.26269192 -33.625 127.8125 C-37.24898865 127.70551879 -37.75029417 127.31225486 -40.75 124.8125 C-43.47547504 120.87776982 -43.56694628 117.99137415 -42.75 113.3125 C-41.75986908 112.59596756 -40.76973816 111.87943512 -39.74960327 111.14118958 C-37.79263986 109.60463593 -36.88234276 108.78048082 -36.19923782 106.36493492 C-36.01215603 103.93027839 -36.00768392 101.55720515 -36.06884766 99.1159668 C-36.0679715 98.19840103 -36.06709534 97.28083527 -36.06619263 96.33546448 C-36.07036467 93.31000912 -36.11699883 90.28678554 -36.1640625 87.26171875 C-36.17525599 85.16137402 -36.18379545 83.06101359 -36.18978882 80.96064758 C-36.21267485 75.43810617 -36.27159711 69.91651475 -36.3380127 64.39434814 C-36.39943952 58.75717012 -36.42680475 53.11983826 -36.45703125 47.48242188 C-36.52133977 36.42536434 -36.62371732 25.36901123 -36.75 14.3125 C-41.7 15.6325 -46.65 16.9525 -51.75 18.3125 C-51.91239022 22.50156633 -52.03112844 26.68430535 -52.125 30.875 C-52.17527344 32.05642578 -52.22554687 33.23785156 -52.27734375 34.45507812 C-52.48894052 42.08892796 -52.48894052 42.08892796 -48.765625 48.4609375 C-47.94626465 49.20029541 -47.94626465 49.20029541 -47.11035156 49.95458984 C-45.75 51.3125 -45.75 51.3125 -45.125 54.375 C-45.91158071 58.07192935 -47.41793122 60.3631189 -49.75 63.3125 C-50.74 63.8075 -50.74 63.8075 -51.75 64.3125 C-51.89575327 67.70787852 -51.98421542 71.10244902 -52.0625 74.5 C-52.1253418 75.93956055 -52.1253418 75.93956055 -52.18945312 77.40820312 C-52.37687107 83.33013211 -52.37687107 83.33013211 -49.26953125 88.20703125 C-48.43808594 88.90183594 -47.60664062 89.59664063 -46.75 90.3125 C-45.84650944 93.41625581 -46.0216154 96.17134142 -46.75 99.3125 C-49.66842598 102.99893282 -51.88287213 105.06354962 -56.5625 105.6875 C-60.79029414 105.19011245 -62.07817564 103.51868923 -64.75 100.3125 C-66.30024464 97.21201072 -66.03992015 94.73355782 -65.75 91.3125 C-63.95437595 88.55920979 -62.69745078 86.78622539 -59.75 85.3125 C-59.60424673 81.91712148 -59.51578458 78.52255098 -59.4375 75.125 C-59.3746582 73.68543945 -59.3746582 73.68543945 -59.31054688 72.21679688 C-59.11725947 66.30474165 -59.11725947 66.30474165 -62.2265625 61.44921875 C-63.05929688 60.74410156 -63.89203125 60.03898437 -64.75 59.3125 C-65.44921875 56.8125 -65.44921875 56.8125 -65.4375 54.3125 C-65.46199219 53.4875 -65.48648438 52.6625 -65.51171875 51.8125 C-64.75 49.3125 -64.75 49.3125 -61.73046875 47.23828125 C-59.41016264 45.47571782 -58.81932513 44.67139589 -58.25756836 41.76318359 C-58.15977265 38.65670171 -58.22708105 35.60440155 -58.375 32.5 C-58.40207031 31.42556641 -58.42914063 30.35113281 -58.45703125 29.24414062 C-58.52758955 26.59820432 -58.62611244 23.9563876 -58.75 21.3125 C-64.18992446 21.08583648 -68.4904344 21.9209066 -73.75 23.3125 C-74.05245927 34.56099884 -74.28281494 45.80851651 -74.42355824 57.06026745 C-74.49114408 62.28635902 -74.58264987 67.50965078 -74.73071289 72.73413086 C-74.8729554 77.78538889 -74.94989135 82.83397178 -74.98340416 87.88707924 C-75.00725348 89.80540378 -75.05383081 91.72359696 -75.12449074 93.64076805 C-75.70337717 105.2022993 -75.70337717 105.2022993 -70.91879272 115.34292603 C-67.80076678 118.68882638 -64.36122098 121.52188617 -60.75 124.3125 C-59.32634758 125.55453793 -57.90740748 126.80208394 -56.5 128.0625 C-55.88640625 128.58328125 -55.2728125 129.1040625 -54.640625 129.640625 C-52.41352921 131.61004029 -50.33785046 133.69624342 -48.25 135.8125 C-45.01599871 139.0848708 -41.69762826 142.15157536 -38.20703125 145.14453125 C-34.67876748 148.25770517 -31.24886141 151.47352938 -27.8125 154.6875 C-27.13687012 155.31938232 -26.46124023 155.95126465 -25.76513672 156.60229492 C-20.94635783 161.11614217 -20.94635783 161.11614217 -19.75 162.3125 C-17.75035018 162.40008003 -15.7476389 162.41946576 -13.74609375 162.41015625 C-12.53115234 162.40693359 -11.31621094 162.40371094 -10.06445312 162.40039062 C-8.78505859 162.39201172 -7.50566406 162.38363281 -6.1875 162.375 C-4.26260742 162.36823242 -4.26260742 162.36823242 -2.29882812 162.36132812 C0.88416022 162.34949545 4.06705762 162.33301068 7.25 162.3125 C7.91 160.9925 8.57 159.6725 9.25 158.3125 C8.5887915 157.87647461 7.92758301 157.44044922 7.24633789 156.99121094 C-1.07559613 151.15757987 -10.73002904 144.03496076 -13.42401123 133.73571777 C-15.6971471 120.16119444 -14.70306531 105.97913104 -13.75 92.3125 C-13.10742249 92.32360306 -12.46484497 92.33470612 -11.80279541 92.34614563 C-5.11964812 92.45669476 1.56323985 92.53214906 8.24707031 92.5871582 C10.74196928 92.61231494 13.23679446 92.64644403 15.73144531 92.68969727 C19.31594028 92.75029434 22.89946163 92.77869892 26.484375 92.80078125 C28.15956207 92.83949089 28.15956207 92.83949089 29.86859131 92.87898254 C35.97458914 93.06413789 35.97458914 93.06413789 40.86035156 89.84448242 C41.31893555 89.00892822 41.77751953 88.17337402 42.25 87.3125 C45.35953379 85.7577331 47.81266761 86.02605563 51.25 86.3125 C54.6875 87.6875 54.6875 87.6875 57.25 90.3125 C58.30543725 95.09016633 57.84716278 99.01432004 55.8125 103.4375 C52.61665098 105.77592611 50.53918686 105.90809741 46.6640625 105.9765625 C44.25 105.3125 44.25 105.3125 41.73730469 102.80151367 C37.55900366 99.24699967 33.30209254 99.67840756 28.0390625 99.82421875 C26.58685806 99.83483086 26.58685806 99.83483086 25.10531616 99.84565735 C22.0277421 99.87353871 18.95201964 99.9362662 15.875 100 C13.78257845 100.02509093 11.69012824 100.0479027 9.59765625 100.06835938 C4.48106264 100.12334507 -0.63415528 100.20957506 -5.75 100.3125 C-8.15654534 120.31320621 -8.15654534 120.31320621 -2.32250977 138.34912109 C0.05683539 140.54908233 2.61502668 142.43132918 5.25 144.3125 C7.02481105 146.16403199 8.77605905 148.03851274 10.5 149.9375 C14.23909934 153.69869569 14.23909934 153.69869569 19.0625 155.5625 C23.6589457 156.64401664 24.73487711 158.34927606 27.25 162.3125 C27.84077522 165.93099825 27.51276677 167.7344131 26 171.0625 C23.38648849 174.42272909 21.53880042 175.1163782 17.375 175.75 C14.25 175.3125 14.25 175.3125 12.0078125 172.796875 C6.66409492 168.14072565 -2.36572053 169.91454868 -9.08056641 170.21948242 C-20.78433214 170.69156476 -20.78433214 170.69156476 -25.81787109 167.16015625 C-28.31228223 164.65337614 -30.52527905 162.05753149 -32.75 159.3125 C-34.0969275 158.07295139 -35.46716319 156.85741024 -36.875 155.6875 C-40.35030689 152.71464711 -43.5465683 149.53469866 -46.75390625 146.27734375 C-48.67107177 144.39019256 -50.64575322 142.62564625 -52.6875 140.875 C-56.49684196 137.60239507 -59.99821109 134.08149563 -63.5234375 130.5078125 C-66.12366761 127.94407684 -68.8377366 125.55880125 -71.6328125 123.2109375 C-72.33148438 122.58445312 -73.03015625 121.95796875 -73.75 121.3125 C-74.31325768 120.85001075 -74.87651537 120.3875215 -75.45684147 119.91101742 C-78.82733742 116.92477044 -81.14766562 114.69320458 -81.62974548 110.0919342 C-81.66733946 108.51103494 -81.6674592 106.928943 -81.63647461 105.34790039 C-81.64725037 104.47881042 -81.65802612 103.60972046 -81.66912842 102.71429443 C-81.69638154 99.86203671 -81.67469865 97.01241956 -81.65234375 94.16015625 C-81.66173281 92.17474229 -81.67419305 90.18934069 -81.68959045 88.20396423 C-81.72178068 82.99397051 -81.71238676 77.78485812 -81.69421387 72.5748291 C-81.68304608 67.25226237 -81.71136897 61.92992011 -81.73632812 56.60742188 C-81.77944686 46.17562401 -81.77861832 35.74433054 -81.75 25.3125 C-86.26617599 25.23595464 -90.34085217 25.21021304 -94.75 26.3125 C-102.29614656 84.24753157 -102.29614656 84.24753157 -85.26101685 136.42736816 C-78.56533987 143.21791064 -70.80798221 148.5418504 -62.54980469 153.23846436 C-58.85683356 155.44224938 -55.78968728 158.29919246 -52.75 161.3125 C-52.16412109 161.88411865 -51.57824219 162.4557373 -50.97460938 163.04467773 C-49.21585045 164.78445551 -47.48055179 166.54470042 -45.75 168.3125 C-41.39783602 172.71577025 -37.03462999 177.01791296 -32.26953125 180.98046875 C-30.75 182.3125 -30.75 182.3125 -28.8125 184.75 C-25.88538454 186.96751172 -23.51158625 186.43228748 -19.94140625 186.26171875 C-16.87511119 186.33277372 -15.0980036 187.40474707 -12.75 189.3125 C-11.0303734 192.7517532 -11.36780036 196.54414562 -11.75 200.3125 C-13.47689045 203.60181514 -14.1920801 204.1265267 -17.75 205.3125 C-24.78553299 205.87087563 -24.78553299 205.87087563 -28.125 203.9375 C-29.84005242 201.16703071 -29.93589333 199.96369916 -30.25 196.8125 C-31.61132073 188.4341897 -39.50285174 182.96848221 -45.63378906 177.69091797 C-51.51870219 172.61586857 -56.95191584 167.17065855 -62.39453125 161.62890625 C-66.39659643 157.58294273 -70.48950632 153.75040345 -74.80371094 150.04052734 C-78.73361453 146.55133296 -82.33778008 142.72404199 -85.98828125 138.94726562 C-86.57738281 138.34720703 -87.16648437 137.74714844 -87.7734375 137.12890625 C-88.29856934 136.58693604 -88.82370117 136.04496582 -89.36474609 135.48657227 C-90.70164237 134.09697906 -90.70164237 134.09697906 -92.75 134.3125 C-88.3663318 162.07573193 -65.84724588 184.91589387 -44.125 200.875 C-35.43354733 207.13484907 -26.2625426 212.40827282 -16.75 217.3125 C-16.09628418 217.70284424 -15.44256836 218.09318848 -14.76904297 218.49536133 C-12.25113118 219.51440012 -11.2666531 219.24697554 -8.75 218.3125 C13.67252695 208.5333374 37.45481949 192.10644053 52.25 172.3125 C53.35872218 169.77500502 53.35872218 169.77500502 53.25 167.3125 C52.14224302 165.43928144 52.14224302 165.43928144 50.3125 163.9375 C49.74660156 163.41414062 49.18070313 162.89078125 48.59765625 162.3515625 C47.23345625 161.16668329 45.86679977 159.98459824 44.49389648 158.80981445 C39.49544952 154.49806487 34.80897912 149.96112954 30.1875 145.25 C21.5966411 136.23357822 21.5966411 136.23357822 11.4375 129.1875 C8.25 127.3125 8.25 127.3125 6.8125 125.5 C5.97882216 122.25791952 5.89888983 119.64804659 6.25 116.3125 C8.04562405 113.55920979 9.30254922 111.78622539 12.25 110.3125 C17.93428373 109.75339013 17.93428373 109.75339013 20.25 110.3125 C20.89759277 111.1382251 21.54518555 111.9639502 22.21240234 112.81469727 C26.66084636 116.47263255 30.42954696 115.94532822 36.01953125 115.80078125 C36.9384314 115.79574585 37.85733154 115.79071045 38.80407715 115.78552246 C42.22387057 115.75943869 45.64321788 115.68963131 49.0625 115.625 C60.5403125 115.4703125 60.5403125 115.4703125 72.25 115.3125 C72.25 93.5325 72.25 71.7525 72.25 49.3125 C58.39 49.3125 44.53 49.3125 30.25 49.3125 C29.59 50.6325 28.93 51.9525 28.25 53.3125 C23.92697641 54.75350786 19.76794416 54.86798494 15.25 54.3125 C12.67362529 52.42734777 11.65332572 51.11915143 10.25 48.3125 C9.8363032 43.65841099 10.43929607 41.06010524 13.25 37.3125 C16.96575751 34.83532833 18.84986738 35.00904258 23.25 35.3125 C26.0625 36.0625 26.0625 36.0625 28.25 37.3125 C29.24 39.2925 29.24 39.2925 30.25 41.3125 C44.44 41.3125 58.63 41.3125 73.25 41.3125 C73.25 36.3625 73.25 31.4125 73.25 26.3125 C70.13304687 25.85810547 70.13304687 25.85810547 66.953125 25.39453125 C44.68502163 22.1032233 23.94736697 17.61282695 2.80175781 9.70239258 C1.66448242 9.27982178 0.52720703 8.85725098 -0.64453125 8.421875 C-1.65362549 8.03999023 -2.66271973 7.65810547 -3.70239258 7.26464844 C-10.78694875 5.0512567 -15.08171567 5.2874451 -21.6875 8.25 Z " fill="#19516E" transform="translate(135.75,16.6875)"/>
<path d="M0 0 C3.5386994 1.65139305 4.81070153 2.71605229 7 6 C7.74380089 10.61848457 7.58487597 14.04470258 5.125 18.0625 C3 20 3 20 1 20 C1 28.25 1 36.5 1 45 C7.03397707 44.97191124 13.06397489 44.9288668 19.09692383 44.84741211 C21.14827524 44.82423941 23.1997455 44.80983811 25.2512207 44.80444336 C28.2033895 44.79514857 31.15369086 44.75414636 34.10546875 44.70703125 C35.02023483 44.7109639 35.93500092 44.71489655 36.87748718 44.71894836 C41.47322458 44.61404078 43.37699018 44.5059435 47.0559082 41.51831055 C48.01823364 40.27174683 48.01823364 40.27174683 49 39 C50 38 50 38 53.1875 37.6875 C57.65937381 38.05404703 59.58789034 39.14335005 63 42 C65.12326225 44.67715676 65.00133584 45.96326426 64.875 49.4375 C63.92645533 53.29943186 62.74586726 55.17092464 60 58 C57.72751762 59.13624119 56.21697236 59.26446843 53.6875 59.375 C52.92824219 59.42398438 52.16898437 59.47296875 51.38671875 59.5234375 C49 59 49 59 47.09228516 56.51147461 C42.40864287 52.7075406 38.00364833 53.27221313 32.13671875 53.29296875 C30.41603935 53.27028679 30.41603935 53.27028679 28.66059875 53.24714661 C25.00270004 53.20421583 21.34562572 53.19542582 17.6875 53.1875 C15.20505612 53.16436008 12.72263192 53.13899582 10.24023438 53.11132812 C4.16014848 53.04842237 -1.91961456 53.01353099 -8 53 C-8.00410889 52.02651611 -8.00821777 51.05303223 -8.01245117 50.05004883 C-8.03428785 46.42467921 -8.08862216 42.80038798 -8.15258789 39.17553711 C-8.17572882 37.60923631 -8.19015448 36.04278078 -8.19555664 34.47631836 C-8.20487588 32.21891297 -8.24592233 29.96392779 -8.29296875 27.70703125 C-8.2890361 27.01100296 -8.28510345 26.31497467 -8.28105164 25.59785461 C-8.39741043 21.68642739 -8.82245657 20.19387721 -11.50512695 17.2644043 C-12.32843506 16.51715088 -13.15174316 15.76989746 -14 15 C-14.62765226 11.04579075 -14.9698237 8.65440514 -12.9375 5.1875 C-8.89157249 0.17825642 -6.31552794 -0.42817139 0 0 Z " fill="#1A5470" transform="translate(130,36)"/>
<path d="M0 0 C2.77895847 -0.13366064 5.52032473 -0.11380086 8.30166626 -0.04135132 C9.31843948 -0.03427658 10.33521271 -0.02720184 11.38279724 -0.01991272 C14.63384235 0.00810075 17.88317204 0.07085408 21.13369751 0.13442993 C23.33614662 0.15950372 25.53862269 0.18231848 27.74111938 0.20278931 C33.14339847 0.25794983 38.54467546 0.34164502 43.94619751 0.44692993 C43.63754785 2.19870648 43.32613985 3.94999716 43.01358032 5.70108032 C42.84046326 6.67638199 42.66734619 7.65168365 42.48898315 8.65653992 C40.43303336 19.22590896 36.05058606 29.02749127 30.94619751 38.44692993 C27.23351657 36.90565642 24.96504053 34.63849759 22.19619751 31.75942993 C19.28051035 28.78017401 16.38383186 25.88306146 13.19619751 23.19692993 C6.7422237 17.68971675 0.90309563 11.47912592 -5.05380249 5.44692993 C-4.02804435 2.47654813 -3.20964944 0.6984549 0 0 Z " fill="#DEE3ED" transform="translate(164.05380249023438,139.55307006835938)"/>
<path d="M0 0 C1.67542976 0.28604898 3.34385343 0.61781233 5 1 C5 2.65 5 4.3 5 6 C2.625 6.625 2.625 6.625 0 7 C-0.66 6.34 -1.32 5.68 -2 5 C-1.46428571 1.46428571 -1.46428571 1.46428571 0 0 Z " fill="#C4D1DE" transform="translate(182,109)"/>
<path d="M0 0 C1.67542976 0.28604898 3.34385343 0.61781233 5 1 C5 2.65 5 4.3 5 6 C2.625 6.625 2.625 6.625 0 7 C-0.66 6.34 -1.32 5.68 -2 5 C-1.46428571 1.46428571 -1.46428571 1.46428571 0 0 Z " fill="#CFD8E2" transform="translate(125,43)"/>
<path d="M0 0 C2.0625 0.4375 2.0625 0.4375 4 1 C4.33 2.65 4.66 4.3 5 6 C2.625 6.625 2.625 6.625 0 7 C-0.66 6.34 -1.32 5.68 -2 5 C-1.46428571 1.46428571 -1.46428571 1.46428571 0 0 Z " fill="#CAD1DA" transform="translate(101,131)"/>
<path d="M0 0 C1.2065625 0.0309375 1.2065625 0.0309375 2.4375 0.0625 C2.81968767 1.71864657 3.15145102 3.38707024 3.4375 5.0625 C2.4375 6.0625 2.4375 6.0625 -0.125 6.125 C-1.3315625 6.0940625 -1.3315625 6.0940625 -2.5625 6.0625 C-2.94468767 4.40635343 -3.27645102 2.73792976 -3.5625 1.0625 C-2.5625 0.0625 -2.5625 0.0625 0 0 Z " fill="#CDD4DD" transform="translate(79.5625,108.9375)"/>
<path d="M0 0 C1.65 0 3.3 0 5 0 C5.33 1.65 5.66 3.3 6 5 C3.625 5.625 3.625 5.625 1 6 C0.34 5.34 -0.32 4.68 -1 4 C-0.625 1.875 -0.625 1.875 0 0 Z " fill="#D6DFE9" transform="translate(149,134)"/>
<path d="M0 0 C1.98 0 3.96 0 6 0 C6 1.65 6 3.3 6 5 C4.34385343 5.38218767 2.67542976 5.71395102 1 6 C0 5 0 5 -0.0625 2.4375 C-0.041875 1.633125 -0.02125 0.82875 0 0 Z " fill="#D1DCE8" transform="translate(112,210)"/>
<path d="M0 0 C1.98 0 3.96 0 6 0 C6 1.65 6 3.3 6 5 C4.34385343 5.38218767 2.67542976 5.71395102 1 6 C0 5 0 5 -0.0625 2.4375 C-0.041875 1.633125 -0.02125 0.82875 0 0 Z " fill="#D1DAE6" transform="translate(181,82)"/>
<path d="M0 0 C1.65 0 3.3 0 5 0 C5.38218767 1.65614657 5.71395102 3.32457024 6 5 C5 6 5 6 2.4375 6.0625 C1.2309375 6.0315625 1.2309375 6.0315625 0 6 C0 4.02 0 2.04 0 0 Z " fill="#DBDDE6" transform="translate(77,68)"/>
<path d="M0 0 C1.67542976 0.28604898 3.34385343 0.61781233 5 1 C5 2.65 5 4.3 5 6 C3.35 6 1.7 6 0 6 C-0.38218767 4.34385343 -0.71395102 2.67542976 -1 1 C-0.67 0.67 -0.34 0.34 0 0 Z " fill="#D3DDE9" transform="translate(151,179)"/>
<path d="M0 0 C1.65 0 3.3 0 5 0 C5.33 1.65 5.66 3.3 6 5 C4.34385343 5.38218767 2.67542976 5.71395102 1 6 C0 5 0 5 -0.0625 2.4375 C-0.041875 1.633125 -0.02125 0.82875 0 0 Z " fill="#DFE5EE" transform="translate(153,59)"/>
<path d="M0 0 C4 2 4 2 5 4 C4.0625 6.625 4.0625 6.625 3 9 C2.67 9 2.34 9 2 9 C1.34 6.03 0.68 3.06 0 0 Z " fill="#AFBFCE" transform="translate(43,151)"/>
</svg>
