<?xml version="1.0" encoding="UTF-8"?>
<svg version="1.1" xmlns="http://www.w3.org/2000/svg" width="727" height="727">
<path d="M0 0 C239.91 0 479.82 0 727 0 C727 239.91 727 479.82 727 727 C487.09 727 247.18 727 0 727 C0 487.09 0 247.18 0 0 Z " fill="#E3E6F0" transform="translate(0,0)"/>
<path d="M0 0 C24.28066689 9.98437507 49.77515376 16.51918071 76.03515625 18.1015625 C78.25 18.3125 78.25 18.3125 81.25 19.3125 C81.36676793 32.21432358 81.45515311 45.1160178 81.50906086 58.01826572 C81.53495714 64.01179977 81.56998251 70.00496763 81.62719727 75.99829102 C81.68223895 81.80148256 81.71156984 87.60432592 81.72438622 93.40775871 C81.73349847 95.60213629 81.75128428 97.79649871 81.77865028 99.99072456 C82.20981588 136.05514538 71.28444997 164.51684201 46.25 190.6875 C31.11985119 205.5002331 12.99829575 216.70802908 -5.75 226.3125 C-6.79800781 226.94865234 -6.79800781 226.94865234 -7.8671875 227.59765625 C-10.58902976 228.63105279 -11.97212533 228.19076939 -14.75 227.3125 C-17.37354652 226.10538188 -19.89677541 224.86145814 -22.4375 223.5 C-23.17500488 223.10619141 -23.91250977 222.71238281 -24.67236328 222.30664062 C-37.55587152 215.27680311 -49.70572921 206.9806476 -60.75 197.3125 C-61.59820312 196.58546875 -62.44640625 195.8584375 -63.3203125 195.109375 C-84.12160341 176.91619702 -100.92980585 151.00110464 -102.9342556 122.71208 C-103.00041476 119.96039289 -103.00913891 117.21507869 -102.99291992 114.46264648 C-102.99481827 113.42891403 -102.99671661 112.39518158 -102.99867249 111.3301239 C-103.00234728 107.94786756 -102.99172853 104.56583065 -102.98046875 101.18359375 C-102.97927563 98.82373581 -102.97882407 96.46387739 -102.9790802 94.10401917 C-102.97752138 89.1776326 -102.96927334 84.25131932 -102.95581055 79.32495117 C-102.93873741 72.99613466 -102.93499891 66.66739791 -102.93575573 60.33856106 C-102.93548465 55.47546115 -102.9300148 50.61237883 -102.92275429 45.74928474 C-102.91956413 43.41397294 -102.91759941 41.07865913 -102.91686058 38.74334526 C-102.91470544 35.494796 -102.90598171 32.24633351 -102.89526367 28.99780273 C-102.89571686 28.02593018 -102.89617004 27.05405762 -102.89663696 26.05273438 C-102.89237198 25.17391098 -102.88810699 24.29508759 -102.88371277 23.38963318 C-102.88203692 22.62186271 -102.88036108 21.85409224 -102.87863445 21.06305599 C-102.75 19.3125 -102.75 19.3125 -101.75 18.3125 C-99.77563656 18.03669615 -97.79292083 17.82028224 -95.80859375 17.62890625 C-94.58462891 17.50580078 -93.36066406 17.38269531 -92.09960938 17.25585938 C-89.51899991 17.0046268 -86.93827271 16.75460023 -84.35742188 16.50585938 C-77.95422889 15.85984984 -71.94383086 15.04572617 -65.75 13.3125 C-64.21804621 12.9680001 -62.68402112 12.6326289 -61.1484375 12.3046875 C-47.04038308 9.20156172 -33.33113823 4.98127885 -20.09521484 -0.85888672 C-12.10939428 -4.33208487 -7.99165215 -3.38313274 0 0 Z " fill="#DEE3EE" transform="translate(135.75,250.6875)"/>
<path d="M0 0 C24.28066689 9.98437507 49.77515376 16.51918071 76.03515625 18.1015625 C78.25 18.3125 78.25 18.3125 81.25 19.3125 C81.36676793 32.21432358 81.45515311 45.1160178 81.50906086 58.01826572 C81.53495714 64.01179977 81.56998251 70.00496763 81.62719727 75.99829102 C81.68223895 81.80148256 81.71156984 87.60432592 81.72438622 93.40775871 C81.73349847 95.60213629 81.75128428 97.79649871 81.77865028 99.99072456 C82.20981588 136.05514538 71.28444997 164.51684201 46.25 190.6875 C31.11985119 205.5002331 12.99829575 216.70802908 -5.75 226.3125 C-6.79800781 226.94865234 -6.79800781 226.94865234 -7.8671875 227.59765625 C-10.58902976 228.63105279 -11.97212533 228.19076939 -14.75 227.3125 C-17.37354652 226.10538188 -19.89677541 224.86145814 -22.4375 223.5 C-23.17500488 223.10619141 -23.91250977 222.71238281 -24.67236328 222.30664062 C-37.55587152 215.27680311 -49.70572921 206.9806476 -60.75 197.3125 C-61.59820312 196.58546875 -62.44640625 195.8584375 -63.3203125 195.109375 C-84.12160341 176.91619702 -100.92980585 151.00110464 -102.9342556 122.71208 C-103.00041476 119.96039289 -103.00913891 117.21507869 -102.99291992 114.46264648 C-102.99481827 113.42891403 -102.99671661 112.39518158 -102.99867249 111.3301239 C-103.00234728 107.94786756 -102.99172853 104.56583065 -102.98046875 101.18359375 C-102.97927563 98.82373581 -102.97882407 96.46387739 -102.9790802 94.10401917 C-102.97752138 89.1776326 -102.96927334 84.25131932 -102.95581055 79.32495117 C-102.93873741 72.99613466 -102.93499891 66.66739791 -102.93575573 60.33856106 C-102.93548465 55.47546115 -102.9300148 50.61237883 -102.92275429 45.74928474 C-102.91956413 43.41397294 -102.91759941 41.07865913 -102.91686058 38.74334526 C-102.91470544 35.494796 -102.90598171 32.24633351 -102.89526367 28.99780273 C-102.89571686 28.02593018 -102.89617004 27.05405762 -102.89663696 26.05273438 C-102.89237198 25.17391098 -102.88810699 24.29508759 -102.88371277 23.38963318 C-102.88203692 22.62186271 -102.88036108 21.85409224 -102.87863445 21.06305599 C-102.75 19.3125 -102.75 19.3125 -101.75 18.3125 C-99.77563656 18.03669615 -97.79292083 17.82028224 -95.80859375 17.62890625 C-94.58462891 17.50580078 -93.36066406 17.38269531 -92.09960938 17.25585938 C-89.51899991 17.0046268 -86.93827271 16.75460023 -84.35742188 16.50585938 C-77.95422889 15.85984984 -71.94383086 15.04572617 -65.75 13.3125 C-64.21804621 12.9680001 -62.68402112 12.6326289 -61.1484375 12.3046875 C-47.04038308 9.20156172 -33.33113823 4.98127885 -20.09521484 -0.85888672 C-12.10939428 -4.33208487 -7.99165215 -3.38313274 0 0 Z M-21.6875 8.25 C-22.37134766 8.54068359 -23.05519531 8.83136719 -23.75976562 9.13085938 C-25.42961245 9.84317166 -27.09077726 10.57577948 -28.75 11.3125 C-28.8658215 23.87327649 -28.95467903 36.43392606 -29.00906086 48.99512768 C-29.03516077 54.82775412 -29.07056691 60.66001538 -29.12719727 66.49243164 C-29.18150164 72.12047734 -29.21141756 77.74817166 -29.22438622 83.37645912 C-29.23362882 85.52431076 -29.25167751 87.67214304 -29.27865028 89.8198452 C-29.31491891 92.8271791 -29.31994616 95.83305896 -29.31762695 98.84057617 C-29.33560333 99.72962143 -29.35357971 100.61866669 -29.37210083 101.53465271 C-29.33469739 106.01352919 -29.2915053 107.6911994 -26.24577332 111.18574524 C-25.42216812 111.88757431 -24.59856293 112.58940338 -23.75 113.3125 C-23.18615874 117.25938882 -23.37665221 119.51246903 -25.0625 123.125 C-27.67939314 126.51726889 -29.36398736 127.26269192 -33.625 127.8125 C-37.24898865 127.70551879 -37.75029417 127.31225486 -40.75 124.8125 C-43.47547504 120.87776982 -43.56694628 117.99137415 -42.75 113.3125 C-41.75986908 112.59596756 -40.76973816 111.87943512 -39.74960327 111.14118958 C-37.79263986 109.60463593 -36.88234276 108.78048082 -36.19923782 106.36493492 C-36.01215603 103.93027839 -36.00768392 101.55720515 -36.06884766 99.1159668 C-36.0679715 98.19840103 -36.06709534 97.28083527 -36.06619263 96.33546448 C-36.07036467 93.31000912 -36.11699883 90.28678554 -36.1640625 87.26171875 C-36.17525599 85.16137402 -36.18379545 83.06101359 -36.18978882 80.96064758 C-36.21267485 75.43810617 -36.27159711 69.91651475 -36.3380127 64.39434814 C-36.39943952 58.75717012 -36.42680475 53.11983826 -36.45703125 47.48242188 C-36.52133977 36.42536434 -36.62371732 25.36901123 -36.75 14.3125 C-41.7 15.6325 -46.65 16.9525 -51.75 18.3125 C-51.91239022 22.50156633 -52.03112844 26.68430535 -52.125 30.875 C-52.17527344 32.05642578 -52.22554687 33.23785156 -52.27734375 34.45507812 C-52.48894052 42.08892796 -52.48894052 42.08892796 -48.765625 48.4609375 C-47.94626465 49.20029541 -47.94626465 49.20029541 -47.11035156 49.95458984 C-45.75 51.3125 -45.75 51.3125 -45.125 54.375 C-45.91158071 58.07192935 -47.41793122 60.3631189 -49.75 63.3125 C-50.74 63.8075 -50.74 63.8075 -51.75 64.3125 C-51.89575327 67.70787852 -51.98421542 71.10244902 -52.0625 74.5 C-52.1253418 75.93956055 -52.1253418 75.93956055 -52.18945312 77.40820312 C-52.37687107 83.33013211 -52.37687107 83.33013211 -49.26953125 88.20703125 C-48.43808594 88.90183594 -47.60664062 89.59664063 -46.75 90.3125 C-45.84650944 93.41625581 -46.0216154 96.17134142 -46.75 99.3125 C-49.66842598 102.99893282 -51.88287213 105.06354962 -56.5625 105.6875 C-60.79029414 105.19011245 -62.07817564 103.51868923 -64.75 100.3125 C-66.30024464 97.21201072 -66.03992015 94.73355782 -65.75 91.3125 C-63.95437595 88.55920979 -62.69745078 86.78622539 -59.75 85.3125 C-59.60424673 81.91712148 -59.51578458 78.52255098 -59.4375 75.125 C-59.3746582 73.68543945 -59.3746582 73.68543945 -59.31054688 72.21679688 C-59.11725947 66.30474165 -59.11725947 66.30474165 -62.2265625 61.44921875 C-63.05929688 60.74410156 -63.89203125 60.03898437 -64.75 59.3125 C-65.44921875 56.8125 -65.44921875 56.8125 -65.4375 54.3125 C-65.46199219 53.4875 -65.48648438 52.6625 -65.51171875 51.8125 C-64.75 49.3125 -64.75 49.3125 -61.73046875 47.23828125 C-59.41016264 45.47571782 -58.81932513 44.67139589 -58.25756836 41.76318359 C-58.15977265 38.65670171 -58.22708105 35.60440155 -58.375 32.5 C-58.40207031 31.42556641 -58.42914063 30.35113281 -58.45703125 29.24414062 C-58.52758955 26.59820432 -58.62611244 23.9563876 -58.75 21.3125 C-64.18992446 21.08583648 -68.4904344 21.9209066 -73.75 23.3125 C-74.05245927 34.56099884 -74.28281494 45.80851651 -74.42355824 57.06026745 C-74.49114408 62.28635902 -74.58264987 67.50965078 -74.73071289 72.73413086 C-74.8729554 77.78538889 -74.94989135 82.83397178 -74.98340416 87.88707924 C-75.00725348 89.80540378 -75.05383081 91.72359696 -75.12449074 93.64076805 C-75.70337717 105.2022993 -75.70337717 105.2022993 -70.91879272 115.34292603 C-67.80076678 118.68882638 -64.36122098 121.52188617 -60.75 124.3125 C-59.32634758 125.55453793 -57.90740748 126.80208394 -56.5 128.0625 C-55.88640625 128.58328125 -55.2728125 129.1040625 -54.640625 129.640625 C-52.41352921 131.61004029 -50.33785046 133.69624342 -48.25 135.8125 C-45.01599871 139.0848708 -41.69762826 142.15157536 -38.20703125 145.14453125 C-34.67876748 148.25770517 -31.24886141 151.47352938 -27.8125 154.6875 C-27.13687012 155.31938232 -26.46124023 155.95126465 -25.76513672 156.60229492 C-20.94635783 161.11614217 -20.94635783 161.11614217 -19.75 162.3125 C-17.75035018 162.40008003 -15.7476389 162.41946576 -13.74609375 162.41015625 C-12.53115234 162.40693359 -11.31621094 162.40371094 -10.06445312 162.40039062 C-8.78505859 162.39201172 -7.50566406 162.38363281 -6.1875 162.375 C-4.26260742 162.36823242 -4.26260742 162.36823242 -2.29882812 162.36132812 C0.88416022 162.34949545 4.06705762 162.33301068 7.25 162.3125 C7.91 160.9925 8.57 159.6725 9.25 158.3125 C8.5887915 157.87647461 7.92758301 157.44044922 7.24633789 156.99121094 C-1.07559613 151.15757987 -10.73002904 144.03496076 -13.42401123 133.73571777 C-15.6971471 120.16119444 -14.70306531 105.97913104 -13.75 92.3125 C-13.10742249 92.32360306 -12.46484497 92.33470612 -11.80279541 92.34614563 C-5.11964812 92.45669476 1.56323985 92.53214906 8.24707031 92.5871582 C10.74196928 92.61231494 13.23679446 92.64644403 15.73144531 92.68969727 C19.31594028 92.75029434 22.89946163 92.77869892 26.484375 92.80078125 C28.15956207 92.83949089 28.15956207 92.83949089 29.86859131 92.87898254 C35.97458914 93.06413789 35.97458914 93.06413789 40.86035156 89.84448242 C41.31893555 89.00892822 41.77751953 88.17337402 42.25 87.3125 C45.35953379 85.7577331 47.81266761 86.02605563 51.25 86.3125 C54.6875 87.6875 54.6875 87.6875 57.25 90.3125 C58.30543725 95.09016633 57.84716278 99.01432004 55.8125 103.4375 C52.61665098 105.77592611 50.53918686 105.90809741 46.6640625 105.9765625 C44.25 105.3125 44.25 105.3125 41.73730469 102.80151367 C37.55900366 99.24699967 33.30209254 99.67840756 28.0390625 99.82421875 C26.58685806 99.83483086 26.58685806 99.83483086 25.10531616 99.84565735 C22.0277421 99.87353871 18.95201964 99.9362662 15.875 100 C13.78257845 100.02509093 11.69012824 100.0479027 9.59765625 100.06835938 C4.48106264 100.12334507 -0.63415528 100.20957506 -5.75 100.3125 C-8.15654534 120.31320621 -8.15654534 120.31320621 -2.32250977 138.34912109 C0.05683539 140.54908233 2.61502668 142.43132918 5.25 144.3125 C7.02481105 146.16403199 8.77605905 148.03851274 10.5 149.9375 C14.23909934 153.69869569 14.23909934 153.69869569 19.0625 155.5625 C23.6589457 156.64401664 24.73487711 158.34927606 27.25 162.3125 C27.84077522 165.93099825 27.51276677 167.7344131 26 171.0625 C23.38648849 174.42272909 21.53880042 175.1163782 17.375 175.75 C14.25 175.3125 14.25 175.3125 12.0078125 172.796875 C6.66409492 168.14072565 -2.36572053 169.91454868 -9.08056641 170.21948242 C-20.78433214 170.69156476 -20.78433214 170.69156476 -25.81787109 167.16015625 C-28.31228223 164.65337614 -30.52527905 162.05753149 -32.75 159.3125 C-34.0969275 158.07295139 -35.46716319 156.85741024 -36.875 155.6875 C-40.35030689 152.71464711 -43.5465683 149.53469866 -46.75390625 146.27734375 C-48.67107177 144.39019256 -50.64575322 142.62564625 -52.6875 140.875 C-56.49684196 137.60239507 -59.99821109 134.08149563 -63.5234375 130.5078125 C-66.12366761 127.94407684 -68.8377366 125.55880125 -71.6328125 123.2109375 C-72.33148438 122.58445312 -73.03015625 121.95796875 -73.75 121.3125 C-74.31325768 120.85001075 -74.87651537 120.3875215 -75.45684147 119.91101742 C-78.82733742 116.92477044 -81.14766562 114.69320458 -81.62974548 110.0919342 C-81.66733946 108.51103494 -81.6674592 106.928943 -81.63647461 105.34790039 C-81.64725037 104.47881042 -81.65802612 103.60972046 -81.66912842 102.71429443 C-81.69638154 99.86203671 -81.67469865 97.01241956 -81.65234375 94.16015625 C-81.66173281 92.17474229 -81.67419305 90.18934069 -81.68959045 88.20396423 C-81.72178068 82.99397051 -81.71238676 77.78485812 -81.69421387 72.5748291 C-81.68304608 67.25226237 -81.71136897 61.92992011 -81.73632812 56.60742188 C-81.77944686 46.17562401 -81.77861832 35.74433054 -81.75 25.3125 C-86.26617599 25.23595464 -90.34085217 25.21021304 -94.75 26.3125 C-102.29614656 84.24753157 -102.29614656 84.24753157 -85.26101685 136.42736816 C-78.56533987 143.21791064 -70.80798221 148.5418504 -62.54980469 153.23846436 C-58.85683356 155.44224938 -55.78968728 158.29919246 -52.75 161.3125 C-52.16412109 161.88411865 -51.57824219 162.4557373 -50.97460938 163.04467773 C-49.21585045 164.78445551 -47.48055179 166.54470042 -45.75 168.3125 C-41.39783602 172.71577025 -37.03462999 177.01791296 -32.26953125 180.98046875 C-30.75 182.3125 -30.75 182.3125 -28.8125 184.75 C-25.88538454 186.96751172 -23.51158625 186.43228748 -19.94140625 186.26171875 C-16.87511119 186.33277372 -15.0980036 187.40474707 -12.75 189.3125 C-11.0303734 192.7517532 -11.36780036 196.54414562 -11.75 200.3125 C-13.47689045 203.60181514 -14.1920801 204.1265267 -17.75 205.3125 C-24.78553299 205.87087563 -24.78553299 205.87087563 -28.125 203.9375 C-29.84005242 201.16703071 -29.93589333 199.96369916 -30.25 196.8125 C-31.61132073 188.4341897 -39.50285174 182.96848221 -45.63378906 177.69091797 C-51.51870219 172.61586857 -56.95191584 167.17065855 -62.39453125 161.62890625 C-66.39659643 157.58294273 -70.48950632 153.75040345 -74.80371094 150.04052734 C-78.73361453 146.55133296 -82.33778008 142.72404199 -85.98828125 138.94726562 C-86.57738281 138.34720703 -87.16648437 137.74714844 -87.7734375 137.12890625 C-88.29856934 136.58693604 -88.82370117 136.04496582 -89.36474609 135.48657227 C-90.70164237 134.09697906 -90.70164237 134.09697906 -92.75 134.3125 C-88.3663318 162.07573193 -65.84724588 184.91589387 -44.125 200.875 C-35.43354733 207.13484907 -26.2625426 212.40827282 -16.75 217.3125 C-16.09628418 217.70284424 -15.44256836 218.09318848 -14.76904297 218.49536133 C-12.25113118 219.51440012 -11.2666531 219.24697554 -8.75 218.3125 C13.67252695 208.5333374 37.45481949 192.10644053 52.25 172.3125 C53.35872218 169.77500502 53.35872218 169.77500502 53.25 167.3125 C52.14224302 165.43928144 52.14224302 165.43928144 50.3125 163.9375 C49.74660156 163.41414062 49.18070313 162.89078125 48.59765625 162.3515625 C47.23345625 161.16668329 45.86679977 159.98459824 44.49389648 158.80981445 C39.49544952 154.49806487 34.80897912 149.96112954 30.1875 145.25 C21.5966411 136.23357822 21.5966411 136.23357822 11.4375 129.1875 C8.25 127.3125 8.25 127.3125 6.8125 125.5 C5.97882216 122.25791952 5.89888983 119.64804659 6.25 116.3125 C8.04562405 113.55920979 9.30254922 111.78622539 12.25 110.3125 C17.93428373 109.75339013 17.93428373 109.75339013 20.25 110.3125 C20.89759277 111.1382251 21.54518555 111.9639502 22.21240234 112.81469727 C26.66084636 116.47263255 30.42954696 115.94532822 36.01953125 115.80078125 C36.9384314 115.79574585 37.85733154 115.79071045 38.80407715 115.78552246 C42.22387057 115.75943869 45.64321788 115.68963131 49.0625 115.625 C60.5403125 115.4703125 60.5403125 115.4703125 72.25 115.3125 C72.25 93.5325 72.25 71.7525 72.25 49.3125 C58.39 49.3125 44.53 49.3125 30.25 49.3125 C29.59 50.6325 28.93 51.9525 28.25 53.3125 C23.92697641 54.75350786 19.76794416 54.86798494 15.25 54.3125 C12.67362529 52.42734777 11.65332572 51.11915143 10.25 48.3125 C9.8363032 43.65841099 10.43929607 41.06010524 13.25 37.3125 C16.96575751 34.83532833 18.84986738 35.00904258 23.25 35.3125 C26.0625 36.0625 26.0625 36.0625 28.25 37.3125 C29.24 39.2925 29.24 39.2925 30.25 41.3125 C44.44 41.3125 58.63 41.3125 73.25 41.3125 C73.25 36.3625 73.25 31.4125 73.25 26.3125 C70.13304687 25.85810547 70.13304687 25.85810547 66.953125 25.39453125 C44.68502163 22.1032233 23.94736697 17.61282695 2.80175781 9.70239258 C1.66448242 9.27982178 0.52720703 8.85725098 -0.64453125 8.421875 C-1.65362549 8.03999023 -2.66271973 7.65810547 -3.70239258 7.26464844 C-10.78694875 5.0512567 -15.08171567 5.2874451 -21.6875 8.25 Z " fill="#19516E" transform="translate(135.75,250.6875)"/>
<path d="M0 0 C0.65484375 0.47050781 1.3096875 0.94101562 1.984375 1.42578125 C2.59796875 1.84472656 3.2115625 2.26367188 3.84375 2.6953125 C7.22818755 5.23364066 8.57898951 7.52193266 9.984375 11.42578125 C8.38861301 12.93471941 6.78247589 14.43269201 5.171875 15.92578125 C4.27855469 16.76109375 3.38523437 17.59640625 2.46484375 18.45703125 C-0.015625 20.42578125 -0.015625 20.42578125 -3.015625 20.42578125 C-3.428125 19.68328125 -3.840625 18.94078125 -4.265625 18.17578125 C-6.54639465 14.59171466 -9.04801683 12.75786631 -13.015625 11.42578125 C-17.97582433 10.786214 -22.39177551 10.87367242 -27.140625 12.48828125 C-29.28585661 14.42555218 -29.28585661 14.42555218 -30.140625 17.80078125 C-30.34988982 21.44724441 -30.34988982 21.44724441 -28.22265625 23.9296875 C-24.19358901 27.67726028 -18.75990787 28.60755541 -13.578125 29.98828125 C1.62707587 34.11253649 1.62707587 34.11253649 7.296875 41.05078125 C7.78800781 41.64117187 8.27914062 42.2315625 8.78515625 42.83984375 C12.65292999 47.95488003 11.82299247 56.28209743 10.984375 62.42578125 C8.79216889 68.39570047 4.69563465 72.40984734 -0.83203125 75.4296875 C-10.75601794 79.95672973 -21.13618326 81.2419441 -31.703125 77.98828125 C-38.20082726 75.31668561 -45.2842457 70.5707934 -48.06640625 63.91015625 C-48.015625 61.42578125 -48.015625 61.42578125 -46.14453125 59.1875 C-44.87416016 58.16076172 -44.87416016 58.16076172 -43.578125 57.11328125 C-42.73378906 56.41589844 -41.88945312 55.71851563 -41.01953125 55 C-40.02759766 54.22076172 -40.02759766 54.22076172 -39.015625 53.42578125 C-34.96176563 55.23051954 -32.14960014 57.88366601 -28.91796875 60.8671875 C-24.22765425 64.70997084 -17.7474728 63.85737349 -12.015625 63.42578125 C-7.8039041 61.90084782 -6.49576292 61.14598814 -4.015625 57.42578125 C-3.69536086 53.91272516 -3.69536086 53.91272516 -5.015625 50.42578125 C-9.94333116 46.79324222 -16.10551597 45.45874683 -21.953125 44.05078125 C-30.31686613 41.86292085 -37.87288281 39.50026285 -42.515625 31.67578125 C-43.010625 30.60328125 -43.505625 29.53078125 -44.015625 28.42578125 C-44.345625 27.76578125 -44.675625 27.10578125 -45.015625 26.42578125 C-45.16539539 24.17922538 -45.23712674 21.92714357 -45.265625 19.67578125 C-45.29140625 18.4640625 -45.3171875 17.25234375 -45.34375 16.00390625 C-44.78515573 9.91256878 -42.26719536 6.1736794 -37.765625 2.17578125 C-37.03859375 1.510625 -36.3115625 0.84546875 -35.5625 0.16015625 C-26.19932632 -6.2159927 -9.49782589 -5.81332446 0 0 Z " fill="#134E6A" transform="translate(304.015625,264.57421875)"/>
<path d="M0 0 C2.16075762 1.58980572 3.35564317 2.80752423 5 5 C4.81793935 8.13043179 4.31696893 9.6325719 2.2578125 12.01953125 C1.55398438 12.61121094 0.85015625 13.20289063 0.125 13.8125 C-0.92300781 14.71935547 -0.92300781 14.71935547 -1.9921875 15.64453125 C-4 17 -4 17 -7 17 C-8.24377577 15.53298243 -9.48518173 14.05985071 -10.62109375 12.5078125 C-13.14854233 9.74408686 -15.35718984 9.07060239 -19.05859375 8.6640625 C-20.17363281 8.65117187 -21.28867187 8.63828125 -22.4375 8.625 C-23.54996094 8.59664063 -24.66242188 8.56828125 -25.80859375 8.5390625 C-29.66183389 9.09558923 -31.28780842 10.25303673 -34 13 C-34.9168463 15.95625267 -34.9168463 15.95625267 -34 19 C-29.1804945 24.03964605 -24.28374295 25.38689608 -17.625 27 C-7.68239207 29.42915989 -0.09931393 32.49792604 6 41 C8.07796273 47.23388819 8.24164162 55.87299225 5.8125 62.0625 C1.99368942 68.2516068 -3.26628767 72.71251299 -10.171875 75.09375 C-19.348752 77.26623517 -31.5754994 77.72432779 -40 73 C-44.54494051 69.97491098 -49.20931128 66.7959187 -52 62 C-51.95837515 58.97922521 -51.03934969 58.04076301 -48.93359375 55.859375 C-48.10988281 55.16328125 -47.28617187 54.4671875 -46.4375 53.75 C-45.61121094 53.04359375 -44.78492188 52.3371875 -43.93359375 51.609375 C-43.29550781 51.07828125 -42.65742188 50.5471875 -42 50 C-41.360625 50.70125 -40.72125 51.4025 -40.0625 52.125 C-34.31593644 57.71149215 -29.59453165 61.37002297 -21.3125 61.625 C-15.96426129 61.37479 -12.89348315 60.67717853 -9 57 C-7.56264754 54.12529507 -7.61827351 52.18105412 -8 49 C-12.80804979 43.85208806 -19.50374675 43.00728614 -26.07617188 41.37695312 C-34.91510496 39.05158507 -41.71683102 35.61397882 -47 28 C-50.02513302 21.94973397 -50.09119049 14.14376135 -48.3828125 7.65625 C-45.68597712 1.45114204 -40.83716801 -2.13763824 -34.8671875 -5.03515625 C-22.72389821 -9.7140222 -10.5423028 -6.94151626 0 0 Z " fill="#124E6B" transform="translate(308,364)"/>
<path d="M0 0 C5.94432618 4.11913878 10.6846473 9.05394191 13 16 C13 21.28 13 26.56 13 32 C-1.85 32 -16.7 32 -32 32 C-27.975835 38.40229082 -27.975835 38.40229082 -22 42 C-15.14636588 42.77703622 -8.90672897 42.93781932 -3 39 C-1.68 38.34 -0.36 37.68 1 37 C3.64 39.31 6.28 41.62 9 44 C5.92962892 50.14074216 1.43777764 52.86432307 -4.859375 55.23046875 C-14.12126187 57.49986143 -24.60270587 57.58365087 -32.921875 52.546875 C-39.42025246 47.70973689 -44.94305852 42.01070706 -46.3984375 33.73413086 C-46.57108408 31.34944996 -46.60658354 29.01538798 -46.5625 26.625 C-46.55226807 25.79009033 -46.54203613 24.95518066 -46.53149414 24.0949707 C-46.23926699 15.60051509 -43.97502471 9.49431779 -37.6875 3.625 C-26.24105383 -5.19726091 -13.00535119 -6.71943145 0 0 Z " fill="#15506E" transform="translate(643,384)"/>
<path d="M0 0 C7.61336202 3.83835057 11.62818249 8.1324258 15 16 C15 21.61 15 27.22 15 33 C0.48 33 -14.04 33 -29 33 C-25.86372027 39.65501868 -25.86372027 39.65501868 -20 43 C-11.82842901 44.04272651 -6.03316887 43.16780377 1 39 C4.60573896 39 5.41336566 39.81707462 8.1875 42 C8.90292969 42.556875 9.61835938 43.11375 10.35546875 43.6875 C10.89816406 44.120625 11.44085938 44.55375 12 45 C9.72400867 50.15380729 5.85975102 52.67282273 0.87890625 54.984375 C-8.09939033 58.19415388 -19.76815528 59.00572359 -28.5625 54.9375 C-35.569326 50.72162822 -40.58942821 45.74820388 -43.33984375 37.9375 C-45.46540389 28.47938624 -45.15271334 18.39418287 -40 10 C-30.68984922 -2.56993832 -14.02896104 -6.57685696 0 0 Z " fill="#134F6D" transform="translate(367,383)"/>
<path d="M0 0 C7.13716254 3.60377438 11.72637843 8.2864181 15.875 15.0625 C17 19 17 19 17 33 C1.82 33 -13.36 33 -29 33 C-23.98075141 40.58161568 -23.98075141 40.58161568 -17 44 C-10.79477476 44.82527406 -6.18255107 44.17432287 -0.7890625 40.97265625 C1.23665792 39.87133663 2.69242456 39.21219085 5 39 C7.140625 40.21484375 7.140625 40.21484375 9.25 41.9375 C9.95640625 42.50339844 10.6628125 43.06929688 11.390625 43.65234375 C11.92171875 44.09707031 12.4528125 44.54179687 13 45 C11.56323497 48.54965477 9.88698102 50.07087942 6.6875 52.125 C5.92824219 52.62257813 5.16898437 53.12015625 4.38671875 53.6328125 C-3.96555902 58.41725967 -14.63039125 58.49274453 -23.93359375 56.3125 C-31.80783983 53.03725033 -37.38082165 47.64048762 -41 40 C-44.07112 32.168644 -44.2512956 23.51334608 -41.3125 15.625 C-37.47981585 7.32306131 -31.95419656 3.13887855 -24 -1 C-16.76823002 -3.41058999 -6.99585283 -2.93825819 0 0 Z " fill="#134E6C" transform="translate(438,286)"/>
<path d="M0 0 C6.55530815 3.78190855 11.01342962 7.39137788 13.25 14.875 C13.63610255 18.24612273 13.60099547 21.57538515 13.54296875 24.96484375 C13.53872391 25.90936905 13.53447906 26.85389435 13.53010559 27.82704163 C13.51340933 30.82249324 13.47577406 33.8172542 13.4375 36.8125 C13.42244146 38.85220378 13.4087551 40.89191817 13.39648438 42.93164062 C13.36353547 47.91302361 13.31181604 52.89389499 13.25 57.875 C8.63 57.875 4.01 57.875 -0.75 57.875 C-0.76458252 56.78034424 -0.77916504 55.68568848 -0.79418945 54.55786133 C-0.85228739 50.48543095 -0.92951927 46.41354685 -1.01245117 42.34155273 C-1.04564654 40.58122645 -1.07369524 38.82079512 -1.09643555 37.06030273 C-1.1300812 34.52542475 -1.1824006 31.99150477 -1.23828125 29.45703125 C-1.24467117 28.67350784 -1.2510611 27.88998444 -1.25764465 27.0827179 C-1.37973675 22.51592698 -1.93658207 19.51622111 -4.75 15.875 C-8.31336997 12.92249345 -11.33385262 12.39534578 -15.82421875 12.58984375 C-19.75225127 13.1714794 -21.97276153 14.86907156 -24.35473633 17.9519043 C-26.18189553 21.7798268 -26.22780642 25.29874936 -26.26171875 29.45703125 C-26.27966995 30.27121017 -26.29762115 31.0853891 -26.31611633 31.92424011 C-26.3700821 34.51194152 -26.40407025 37.09945993 -26.4375 39.6875 C-26.47068528 41.44729101 -26.50517606 43.20705792 -26.54101562 44.96679688 C-26.62580042 49.26939893 -26.69267665 53.57194801 -26.75 57.875 C-31.37 57.875 -35.99 57.875 -40.75 57.875 C-40.75 38.735 -40.75 19.595 -40.75 -0.125 C-36.13 -0.125 -31.51 -0.125 -26.75 -0.125 C-26.42 1.525 -26.09 3.175 -25.75 4.875 C-25.20730469 4.52566406 -24.66460938 4.17632812 -24.10546875 3.81640625 C-23.39003906 3.36136719 -22.67460938 2.90632813 -21.9375 2.4375 C-21.22980469 1.98503906 -20.52210938 1.53257812 -19.79296875 1.06640625 C-13.80452563 -2.42589805 -6.44840087 -1.93452026 0 0 Z " fill="#144F6C" transform="translate(573.75,381.125)"/>
<path d="M0 0 C5.02196384 2.51548997 8.68027494 6.42304987 11.1875 11.4375 C11.27713847 12.91850811 11.30507925 14.40349424 11.30102539 15.88720703 C11.30094986 16.80801056 11.30087433 17.72881409 11.30079651 18.67752075 C11.29563522 19.67339203 11.29047394 20.66926331 11.28515625 21.6953125 C11.2837413 22.71350067 11.28232635 23.73168884 11.28086853 24.7807312 C11.275259 28.04135035 11.26270488 31.30190151 11.25 34.5625 C11.24498623 36.76953026 11.24042311 38.97656159 11.23632812 41.18359375 C11.22528647 46.60158881 11.20801543 52.01953286 11.1875 57.4375 C6.5675 57.4375 1.9475 57.4375 -2.8125 57.4375 C-2.8218457 56.24672852 -2.83119141 55.05595703 -2.84082031 53.82910156 C-2.88071387 49.40814908 -2.94647073 44.98789297 -3.02001953 40.56738281 C-3.04823286 38.65471344 -3.06944561 36.7419274 -3.08349609 34.82910156 C-3.10492081 32.07816827 -3.1515674 29.32863825 -3.203125 26.578125 C-3.20435364 25.72381897 -3.20558228 24.86951294 -3.20684814 23.98931885 C-3.32056367 19.10339764 -3.32056367 19.10339764 -5.6730957 14.90161133 C-9.89922244 12.00944175 -14.93277117 12.64421075 -19.8125 13.4375 C-22.78611086 15.65313162 -24.18209793 17.17669585 -25.8125 20.4375 C-25.96941907 23.20681368 -26.07093134 25.95484107 -26.12890625 28.7265625 C-26.14968735 29.54498627 -26.17046844 30.36341003 -26.19187927 31.20663452 C-26.25734812 33.82516966 -26.31624726 36.44380639 -26.375 39.0625 C-26.41818776 40.83594807 -26.46180214 42.60938581 -26.50585938 44.3828125 C-26.61302676 48.73427046 -26.71430169 53.08583077 -26.8125 57.4375 C-31.4325 57.4375 -36.0525 57.4375 -40.8125 57.4375 C-40.8125 38.6275 -40.8125 19.8175 -40.8125 0.4375 C-36.1925 0.4375 -31.5725 0.4375 -26.8125 0.4375 C-26.8125 1.7575 -26.8125 3.0775 -26.8125 4.4375 C-26.26980469 4.08816406 -25.72710937 3.73882812 -25.16796875 3.37890625 C-24.45253906 2.92386719 -23.73710937 2.46882813 -23 2 C-22.29230469 1.54753906 -21.58460938 1.09507812 -20.85546875 0.62890625 C-14.6247222 -3.00470311 -6.56709995 -2.60900066 0 0 Z " fill="#144E6C" transform="translate(433.8125,381.5625)"/>
<path d="M0 0 C3.61328125 0.03255208 7.2265625 0.06510417 10.83984375 0.09765625 C10.83984375 6.03765625 10.83984375 11.97765625 10.83984375 18.09765625 C15.78984375 18.09765625 20.73984375 18.09765625 25.83984375 18.09765625 C25.83984375 22.71765625 25.83984375 27.33765625 25.83984375 32.09765625 C20.88984375 32.09765625 15.93984375 32.09765625 10.83984375 32.09765625 C10.9138694 36.0312263 10.99670932 39.96305006 11.10229492 43.89575195 C11.15185694 45.89056255 11.18635508 47.88572882 11.22070312 49.88085938 C11.27387695 51.7612793 11.27387695 51.7612793 11.328125 53.6796875 C11.35430908 54.83702393 11.38049316 55.99436035 11.4074707 57.18676758 C11.60747261 60.08278582 11.60747261 60.08278582 13.203125 61.96679688 C15.58676544 63.61372744 17.66281715 63.61665469 20.52734375 63.78515625 C22.28046875 63.88828125 24.03359375 63.99140625 25.83984375 64.09765625 C25.83984375 68.05765625 25.83984375 72.01765625 25.83984375 76.09765625 C22.79721108 76.20610652 19.75848171 76.28517688 16.71484375 76.34765625 C15.85890625 76.38117188 15.00296875 76.4146875 14.12109375 76.44921875 C8.3168048 76.5385155 5.32355417 75.82939643 0.83984375 72.09765625 C0.26234375 71.62328125 -0.31515625 71.14890625 -0.91015625 70.66015625 C-4.35124521 66.35879504 -4.39798009 61.94454766 -4.35546875 56.609375 C-4.35263885 55.9061763 -4.34980896 55.2029776 -4.34689331 54.47846985 C-4.33575776 52.24718733 -4.31066622 50.01631608 -4.28515625 47.78515625 C-4.27511785 46.26628187 -4.26599351 44.74740115 -4.2578125 43.22851562 C-4.23584038 39.51809704 -4.20135672 35.80791683 -4.16015625 32.09765625 C-7.13015625 32.09765625 -10.10015625 32.09765625 -13.16015625 32.09765625 C-13.16015625 27.47765625 -13.16015625 22.85765625 -13.16015625 18.09765625 C-10.19015625 18.09765625 -7.22015625 18.09765625 -4.16015625 18.09765625 C-4.17755859 16.27427734 -4.17755859 16.27427734 -4.1953125 14.4140625 C-4.20468903 12.82942861 -4.21378938 11.24479307 -4.22265625 9.66015625 C-4.23103516 8.85771484 -4.23941406 8.05527344 -4.24804688 7.22851562 C-4.25667055 5.18470404 -4.21243775 3.14081723 -4.16015625 1.09765625 C-3.16015625 0.09765625 -3.16015625 0.09765625 0 0 Z " fill="#19516E" transform="translate(467.16015625,362.90234375)"/>
<path d="M0 0 C4.62 0 9.24 0 14 0 C14 5.61 14 11.22 14 17 C18.95 17 23.9 17 29 17 C29 21.29 29 25.58 29 30 C24.05 30 19.1 30 14 30 C14.07402565 33.93357005 14.15686557 37.86539381 14.26245117 41.7980957 C14.31201319 43.7929063 14.34651133 45.78807257 14.38085938 47.78320312 C14.4340332 49.66362305 14.4340332 49.66362305 14.48828125 51.58203125 C14.51446533 52.73936768 14.54064941 53.8967041 14.56762695 55.08911133 C14.76762886 57.98512957 14.76762886 57.98512957 16.36328125 59.86914062 C18.74692169 61.51607119 20.8229734 61.51899844 23.6875 61.6875 C24.68136719 61.75324219 25.67523438 61.81898438 26.69921875 61.88671875 C27.45847656 61.92410156 28.21773438 61.96148437 29 62 C29.02686553 63.97909398 29.04633375 65.95828971 29.0625 67.9375 C29.07410156 69.03964844 29.08570313 70.14179688 29.09765625 71.27734375 C29 74 29 74 28 75 C20.19336989 75.55080701 12.96887043 75.80120205 6 72 C2.44750181 68.65279693 0.05453727 65.60843889 -0.11352539 60.65185547 C-0.11336688 59.22362303 -0.10770735 57.79538458 -0.09765625 56.3671875 C-0.0962413 55.61535187 -0.09482635 54.86351624 -0.09336853 54.08889771 C-0.08776465 51.6842249 -0.07521157 49.27964473 -0.0625 46.875 C-0.0574855 45.24609509 -0.0529225 43.61718873 -0.04882812 41.98828125 C-0.03779397 37.99215173 -0.02052679 33.99609158 0 30 C-3.3 30 -6.6 30 -10 30 C-10 25.71 -10 21.42 -10 17 C-6.7 17 -3.4 17 0 17 C0 11.39 0 5.78 0 0 Z " fill="#144E6C" transform="translate(360,268)"/>
<path d="M0 0 C3.5386994 1.65139305 4.81070153 2.71605229 7 6 C7.74380089 10.61848457 7.58487597 14.04470258 5.125 18.0625 C3 20 3 20 1 20 C1 28.25 1 36.5 1 45 C7.03397707 44.97191124 13.06397489 44.9288668 19.09692383 44.84741211 C21.14827524 44.82423941 23.1997455 44.80983811 25.2512207 44.80444336 C28.2033895 44.79514857 31.15369086 44.75414636 34.10546875 44.70703125 C35.02023483 44.7109639 35.93500092 44.71489655 36.87748718 44.71894836 C41.47322458 44.61404078 43.37699018 44.5059435 47.0559082 41.51831055 C48.01823364 40.27174683 48.01823364 40.27174683 49 39 C50 38 50 38 53.1875 37.6875 C57.65937381 38.05404703 59.58789034 39.14335005 63 42 C65.12326225 44.67715676 65.00133584 45.96326426 64.875 49.4375 C63.92645533 53.29943186 62.74586726 55.17092464 60 58 C57.72751762 59.13624119 56.21697236 59.26446843 53.6875 59.375 C52.92824219 59.42398438 52.16898437 59.47296875 51.38671875 59.5234375 C49 59 49 59 47.09228516 56.51147461 C42.40864287 52.7075406 38.00364833 53.27221313 32.13671875 53.29296875 C30.41603935 53.27028679 30.41603935 53.27028679 28.66059875 53.24714661 C25.00270004 53.20421583 21.34562572 53.19542582 17.6875 53.1875 C15.20505612 53.16436008 12.72263192 53.13899582 10.24023438 53.11132812 C4.16014848 53.04842237 -1.91961456 53.01353099 -8 53 C-8.00410889 52.02651611 -8.00821777 51.05303223 -8.01245117 50.05004883 C-8.03428785 46.42467921 -8.08862216 42.80038798 -8.15258789 39.17553711 C-8.17572882 37.60923631 -8.19015448 36.04278078 -8.19555664 34.47631836 C-8.20487588 32.21891297 -8.24592233 29.96392779 -8.29296875 27.70703125 C-8.2890361 27.01100296 -8.28510345 26.31497467 -8.28105164 25.59785461 C-8.39741043 21.68642739 -8.82245657 20.19387721 -11.50512695 17.2644043 C-12.32843506 16.51715088 -13.15174316 15.76989746 -14 15 C-14.62765226 11.04579075 -14.9698237 8.65440514 -12.9375 5.1875 C-8.89157249 0.17825642 -6.31552794 -0.42817139 0 0 Z " fill="#1A5470" transform="translate(130,270)"/>
<path d="M0 0 C4.62 0 9.24 0 14 0 C14.0093457 2.04421143 14.01869141 4.08842285 14.02832031 6.19458008 C14.06206829 12.94419078 14.11760461 19.69349502 14.18390274 26.4428606 C14.22343387 30.53557262 14.25559437 34.62806767 14.27099609 38.72094727 C14.28612605 42.66991588 14.320505 46.61828825 14.36830902 50.56699181 C14.38316092 52.07443755 14.3910432 53.58196841 14.39188385 55.08948708 C14.39424406 57.19938553 14.42124165 59.30762337 14.45410156 61.41723633 C14.46298401 62.61858719 14.47186646 63.81993805 14.48101807 65.05769348 C14.72965499 68.06716451 14.72965499 68.06716451 16.79974365 69.86845398 C19.79993266 71.41138871 22.66742491 71.67956009 26 72 C26 75.96 26 79.92 26 84 C23.45716766 84.10871967 20.91904912 84.18762401 18.375 84.25 C17.66214844 84.28351563 16.94929687 84.31703125 16.21484375 84.3515625 C10.99138935 84.4474057 8.1705853 83.40314728 4 80 C0.06897039 75.5267594 -0.12356043 71.78860909 -0.11352539 65.95825195 C-0.11367142 65.24580322 -0.11381744 64.53335449 -0.1139679 63.79931641 C-0.11327151 61.445607 -0.10549192 59.09197683 -0.09765625 56.73828125 C-0.0957911 55.10589135 -0.09436765 53.47350089 -0.09336853 51.84111023 C-0.08955101 47.54538425 -0.07972724 43.24969211 -0.06866455 38.95397949 C-0.05843399 34.57023577 -0.05386738 30.18648659 -0.04882812 25.80273438 C-0.0381043 17.20180567 -0.02051368 8.60091094 0 0 Z " fill="#124D6B" transform="translate(667,355)"/>
<path d="M0 0 C2.77895847 -0.13366064 5.52032473 -0.11380086 8.30166626 -0.04135132 C9.31843948 -0.03427658 10.33521271 -0.02720184 11.38279724 -0.01991272 C14.63384235 0.00810075 17.88317204 0.07085408 21.13369751 0.13442993 C23.33614662 0.15950372 25.53862269 0.18231848 27.74111938 0.20278931 C33.14339847 0.25794983 38.54467546 0.34164502 43.94619751 0.44692993 C43.63754785 2.19870648 43.32613985 3.94999716 43.01358032 5.70108032 C42.84046326 6.67638199 42.66734619 7.65168365 42.48898315 8.65653992 C40.43303336 19.22590896 36.05058606 29.02749127 30.94619751 38.44692993 C27.23351657 36.90565642 24.96504053 34.63849759 22.19619751 31.75942993 C19.28051035 28.78017401 16.38383186 25.88306146 13.19619751 23.19692993 C6.7422237 17.68971675 0.90309563 11.47912592 -5.05380249 5.44692993 C-4.02804435 2.47654813 -3.20964944 0.6984549 0 0 Z " fill="#DEE3ED" transform="translate(164.05380249023438,373.5530700683594)"/>
<path d="M0 0 C4.95 0 9.9 0 15 0 C15 19.14 15 38.28 15 58 C10.05 58 5.1 58 0 58 C0 38.86 0 19.72 0 0 Z " fill="#134D6B" transform="translate(504,381)"/>
<path d="M0 0 C4.62 0 9.24 0 14 0 C14 18.81 14 37.62 14 57 C9.38 57 4.76 57 0 57 C0 38.19 0 19.38 0 0 Z " fill="#124C6A" transform="translate(326,285)"/>
<path d="M0 0 C4.00649405 1.44803998 6.8717083 4.33460875 9 8 C9 8.99 9 9.98 9 11 C-1.56 11 -12.12 11 -23 11 C-18.65007066 0.12517664 -10.89628238 -0.96767471 0 0 Z " fill="#D1DAE6" transform="translate(432,297)"/>
<path d="M0 0 C4.95 0 9.9 0 15 0 C15 19.14 15 38.28 15 58 C10.05 58 5.1 58 0 58 C0 38.86 0 19.72 0 0 Z M2 2 C2 20.15 2 38.3 2 57 C5.63 57 9.26 57 13 57 C13 38.85 13 20.7 13 2 C9.37 2 5.74 2 2 2 Z " fill="#255B77" transform="translate(504,381)"/>
<path d="M0 0 C4.4043194 1.89589908 7.33622497 4.00433746 10 8 C10 8.99 10 9.98 10 11 C-0.23 11 -10.46 11 -21 11 C-18.83082236 5.57705591 -17.04298973 3.76977227 -12.1328125 0.9140625 C-8.17684717 -0.78135121 -4.20739272 -0.62984921 0 0 Z " fill="#DBE1EC" transform="translate(632,393)"/>
<path d="M0 0 C3.88260365 2.23996364 5.68814547 4.22629809 8.25 7.875 C8.25 8.535 8.25 9.195 8.25 9.875 C-1.98 9.875 -12.21 9.875 -22.75 9.875 C-21.71644694 5.74078775 -21.40424704 5.18789418 -18.3125 2.6875 C-17.69503906 2.17832031 -17.07757813 1.66914063 -16.44140625 1.14453125 C-11.50704454 -2.55908897 -5.64206434 -1.6926193 0 0 Z " fill="#DBE0EB" transform="translate(360.75,394.125)"/>
<path d="M0 0 C4.95 0 9.9 0 15 0 C15 4.95 15 9.9 15 15 C10.05 15 5.1 15 0 15 C0 10.05 0 5.1 0 0 Z " fill="#144F6D" transform="translate(504,357)"/>
<path d="M0 0 C4.95 0 9.9 0 15 0 C15 4.95 15 9.9 15 15 C10.05 15 5.1 15 0 15 C0 10.05 0 5.1 0 0 Z " fill="#164D6B" transform="translate(326,260)"/>
<path d="M0 0 C1.67542976 0.28604898 3.34385343 0.61781233 5 1 C5 2.65 5 4.3 5 6 C2.625 6.625 2.625 6.625 0 7 C-0.66 6.34 -1.32 5.68 -2 5 C-1.46428571 1.46428571 -1.46428571 1.46428571 0 0 Z " fill="#C4D1DE" transform="translate(182,343)"/>
<path d="M0 0 C1.67542976 0.28604898 3.34385343 0.61781233 5 1 C5 2.65 5 4.3 5 6 C2.625 6.625 2.625 6.625 0 7 C-0.66 6.34 -1.32 5.68 -2 5 C-1.46428571 1.46428571 -1.46428571 1.46428571 0 0 Z " fill="#CFD8E2" transform="translate(125,277)"/>
<path d="M0 0 C2.0625 0.4375 2.0625 0.4375 4 1 C4.33 2.65 4.66 4.3 5 6 C2.625 6.625 2.625 6.625 0 7 C-0.66 6.34 -1.32 5.68 -2 5 C-1.46428571 1.46428571 -1.46428571 1.46428571 0 0 Z " fill="#CAD1DA" transform="translate(101,365)"/>
<path d="M0 0 C1.2065625 0.0309375 1.2065625 0.0309375 2.4375 0.0625 C2.81968767 1.71864657 3.15145102 3.38707024 3.4375 5.0625 C2.4375 6.0625 2.4375 6.0625 -0.125 6.125 C-1.3315625 6.0940625 -1.3315625 6.0940625 -2.5625 6.0625 C-2.94468767 4.40635343 -3.27645102 2.73792976 -3.5625 1.0625 C-2.5625 0.0625 -2.5625 0.0625 0 0 Z " fill="#CDD4DD" transform="translate(79.5625,342.9375)"/>
<path d="M0 0 C1.65 0 3.3 0 5 0 C5.33 1.65 5.66 3.3 6 5 C3.625 5.625 3.625 5.625 1 6 C0.34 5.34 -0.32 4.68 -1 4 C-0.625 1.875 -0.625 1.875 0 0 Z " fill="#D6DFE9" transform="translate(149,368)"/>
<path d="M0 0 C1.98 0 3.96 0 6 0 C6 1.65 6 3.3 6 5 C4.34385343 5.38218767 2.67542976 5.71395102 1 6 C0 5 0 5 -0.0625 2.4375 C-0.041875 1.633125 -0.02125 0.82875 0 0 Z " fill="#D1DCE8" transform="translate(112,444)"/>
<path d="M0 0 C1.98 0 3.96 0 6 0 C6 1.65 6 3.3 6 5 C4.34385343 5.38218767 2.67542976 5.71395102 1 6 C0 5 0 5 -0.0625 2.4375 C-0.041875 1.633125 -0.02125 0.82875 0 0 Z " fill="#D1DAE6" transform="translate(181,316)"/>
<path d="M0 0 C1.65 0 3.3 0 5 0 C5.38218767 1.65614657 5.71395102 3.32457024 6 5 C5 6 5 6 2.4375 6.0625 C1.2309375 6.0315625 1.2309375 6.0315625 0 6 C0 4.02 0 2.04 0 0 Z " fill="#DBDDE6" transform="translate(77,302)"/>
<path d="M0 0 C1.67542976 0.28604898 3.34385343 0.61781233 5 1 C5 2.65 5 4.3 5 6 C3.35 6 1.7 6 0 6 C-0.38218767 4.34385343 -0.71395102 2.67542976 -1 1 C-0.67 0.67 -0.34 0.34 0 0 Z " fill="#D3DDE9" transform="translate(151,413)"/>
<path d="M0 0 C1.65 0 3.3 0 5 0 C5.33 1.65 5.66 3.3 6 5 C4.34385343 5.38218767 2.67542976 5.71395102 1 6 C0 5 0 5 -0.0625 2.4375 C-0.041875 1.633125 -0.02125 0.82875 0 0 Z " fill="#DFE5EE" transform="translate(153,293)"/>
<path d="M0 0 C0.66 0.66 1.32 1.32 2 2 C0.75160501 3.105981 -0.49879234 4.20970201 -1.75 5.3125 C-2.44609375 5.92738281 -3.1421875 6.54226563 -3.859375 7.17578125 C-5.85114506 8.87314734 -7.88898915 10.45477809 -10 12 C-9.49452628 7.91944849 -7.49911118 6.33727705 -4.4375 3.75 C-3.61121094 3.04359375 -2.78492188 2.3371875 -1.93359375 1.609375 C-1.29550781 1.07828125 -0.65742188 0.5471875 0 0 Z " fill="#205875" transform="translate(266,414)"/>
<path d="M0 0 C0.66 0.33 1.32 0.66 2 1 C-0.64 3.97 -3.28 6.94 -6 10 C-6.33 8.68 -6.66 7.36 -7 6 C-4.69 4.02 -2.38 2.04 0 0 Z " fill="#1E5572" transform="translate(263,320)"/>
<path d="M0 0 C-1.36944102 2.94956528 -2.87830409 5.52468811 -5 8 C-5.66 8 -6.32 8 -7 8 C-4.18918919 0 -4.18918919 0 0 0 Z " fill="#C8D4E2" transform="translate(618,396)"/>
<path d="M0 0 C4 2 4 2 5 4 C4.0625 6.625 4.0625 6.625 3 9 C2.67 9 2.34 9 2 9 C1.34 6.03 0.68 3.06 0 0 Z " fill="#AFBFCE" transform="translate(43,385)"/>
</svg>
